# xmcd
#
# Track frame offsets: 
#        150
#        8999
#        23515
#        36541
#        45898
#        56088
#        68399
#        79478
#        90361
#        101812
#        115621
#        126299
#        137815
#        148735
#        155932
#        167795
#        177551
#
# Disc length: 2493 seconds
#
# Revision: 0
# Processed by: cddbd v1.5.2PL0 Copyright (c) Steve Scherf et al.
# Submitted via: ExactAudioCopyFreeDBPlugin 1.0
#
DISCID=e909bb11
DTITLE=伊東ゆかり - ゆかりのヒット・パレード 第2集 紙ジャケット仕様 SWAX-1024(NKCD-4245)
DYEAR=2019
DGENRE=JPop
TTITLE0=恋の売り込み
TTITLE1=オールド・スモーキー・ロコモーション
TTITLE2=ボビーに首ったけ
TTITLE3=ターキー・ダンス
TTITLE4=夢見る片思い
TTITLE5=内気なジョニー
TTITLE6=キューティー・パイ
TTITLE7=ワン・ボーイ
TTITLE8=夢見る16才
TTITLE9=渚のデイト
TTITLE10=恋のブルージーン (additional track)
TTITLE11=悲しいテレフォンデイト (additional track)
TTITLE12=キャンドル・ライト・キッセス (additional track)
TTITLE13=サンタが町にやってくる (additional track)
TTITLE14=ベビーズ・ファースト・クリスマス (additional track)
TTITLE15=きよしこの夜 (additional track)
TTITLE16=クリスマス・デイ (additional track)
EXTD=
EXTT0=
EXTT1=
EXTT2=
EXTT3=
EXTT4=
EXTT5=
EXTT6=
EXTT7=
EXTT8=
EXTT9=
EXTT10=
EXTT11=
EXTT12=
EXTT13=
EXTT14=
EXTT15=
EXTT16=
PLAYORDER=
